<?xml version="1.0" encoding="iso-8859-1"?>
<!-- Generator: Adobe Illustrator 19.0.0, SVG Export Plug-In . SVG Version: 6.00 Build 0)  -->
<svg version="1.1" id="Capa_1" xmlns="http://www.w3.org/2000/svg" xmlns:xlink="http://www.w3.org/1999/xlink" x="0px" y="0px"
	 viewBox="0 0 512 512" style="enable-background:new 0 0 512 512;" xml:space="preserve">
<g>
	<path style="fill:#C7232C;" d="M318.48,39.601c-2.774,2.903-3.965,17.72-3.965,36.074c0,4.396,0,98.212,0,101.984
		c0,13.912-33.218,44.443-44.738,54.827c-1.361,1.227-0.49,3.485,1.342,3.485h23.856c0.531,0,1.034-0.205,1.409-0.581
		c5.335-5.353,34.026-35.415,37.371-39.244c4.552-5.201,15.393-18.371,15.393-39.056c0-4.869,0.055-104.553,0.055-108.954
		c0-13.478,29.475-35.555,41.13-44.284c1.532-1.147,0.73-3.583-1.183-3.601L362.154,0c-0.521-0.005-1.021,0.194-1.398,0.553
		C355.203,5.843,318.48,39.601,318.48,39.601z"/>
	<path style="fill:#E2001A;" d="M236.529,464.19l40.962,35.958h27.424c27.894,0,64.901-11.994,81.717-28.892
		c16.838-16.92,23.029-39.63,23.029-60.884c0-15.467,0-56.116,0-58.942c0-16.433-28.321-38.618-37.969-45.699
		c-1.32-0.969-3.174-0.02-3.174,1.619v40.523c0,0.518,0.2,1.015,0.559,1.388c2.533,2.63,12.908,13.404,15.183,15.827
		c12.148,12.974,20.136,39.641-18.329,77.326c-6.739,6.593-34.078,21.774-60.528,21.774
		C301.632,464.19,236.529,464.19,236.529,464.19L236.529,464.19z"/>
	<path style="fill:#C7232C;" d="M368.517,307.352v40.523c0,0.518,0.2,1.015,0.559,1.388c2.533,2.63,12.908,13.404,15.183,15.827
		c9.811,10.479,16.903,29.892-0.996,56.826c-1.941,17.677-8.585,35.458-22.401,49.34c-16.816,16.898-53.823,28.892-81.717,28.892
		h25.769c27.894,0,64.901-11.994,81.717-28.892c16.838-16.92,23.029-39.63,23.029-60.884c0-15.467,0-56.116,0-58.942
		c0-16.433-28.321-38.618-37.969-45.698C370.371,304.764,368.517,305.713,368.517,307.352z"/>
	<g>
		<path style="fill:#E2001A;" d="M380.931,259.528h-31.156c0,0,0-16.508,0-22.321c0-10.46,15.478-22.334,20.052-27.185
			c0,0,12.071-11.232,18.452-17.161c1.335-1.24,0.448-3.472-1.373-3.464l-21.223,0.092c-0.465,0.002-0.909,0.162-1.266,0.459
			c-5.955,4.955-38.49,34.9-42.762,39.686c-7.813,8.813-6.568,25.492-6.724,29.893c0,0-164.268,0.157-168.333,0.157
			c-19.821,0-33.536-19.885-33.536-37.216c0-2.119,0.603-41.906,0.603-41.906c0-24.882-8.064-35.112-11.194-37.767
			c-0.539-0.457-1.221-0.7-1.928-0.7h-20.61c-1.788,0-2.666,2.157-1.4,3.422c6.607,6.599,10.568,18.427,10.568,25.977
			c0,6.91-0.077,51.448,0,55.843c0.316,14.916,11.003,70.676,61.006,70.676c6.252,0,164.509,0,164.509,0s0.472,88.641,0.472,92.408
			c0,14.877-4.907,23.808-9.126,28.208c-2.637,2.748-12.749,12.082-18.375,17.25c-1.349,1.239-0.458,3.486,1.373,3.471l22.974-0.186
			c0.427-0.003,0.834-0.138,1.175-0.394c5.212-3.907,25.32-19.359,36.487-35.567l0.18-104.401l31.156-28.546L380.931,259.528
			L380.931,259.528z"/>
		<path style="fill:#E2001A;" d="M227.639,349.372c0,5.335-15.344,18.393-19.976,22.345c-0.57,0.486-1.452,0.225-1.669-0.481
			c-1.863-6.078-7.083-13.148-20.316-26.078c-0.4-0.391-0.406-1.028-0.005-1.418l20.494-19.911c0.402-0.39,1.057-0.384,1.459,0.005
			C221.8,337.529,227.639,340.623,227.639,349.372L227.639,349.372z"/>
		<path style="fill:#E2001A;" d="M271.661,32.512c5.208,5.536,16.414,20.552,9.693,27.713c-4.133,4.393-9.844,10.572-12.942,13.932
			c-0.944,1.024-2.585,0.773-3.244-0.454c-1.583-2.945-4.373-5.784-4.373-5.784s0.073,26.65,0,29.95
			c-0.292,12.033-8.243,11.801-8.243,11.801s27.403,22.061,27.403,50.402c0,13.742,0.054,26.383,0.054,29.109
			c0,5.808-1.382,10.305-5.187,14.761c-1.885,2.214-21.274,22.923-24.226,25.749c-5.615,5.38-11.525,6.281-15.954,6.281
			c-3.104,0-76.522,0-78.59,0c-11.358,0-23.046-9.418-23.046-18.839c0-1.671,0.073-15.24,0.116-23.011
			c0.01-1.798,2.208-2.669,3.437-1.359c2.959,3.155,6.721,5.78,13.138,5.681c7.093-0.116,14.552-6.042,16.546-8.162
			c2.068-2.219,54.546-60.533,54.546-60.533s-12.831-13.338-29.02-24.843c-7.904-5.629-18.916-1.935-23.198,4.138
			c-9.36,13.275-9.473,35.847-8.949,46.271c0.094,1.86-2.171,2.834-3.448,1.48c-5.003-5.305-13.391-14.2-16.04-17.014
			c-8.013-8.541-18.284-57.101,36.374-57.101c2.957,0,25.521,0,28.788,0c26.055,0,32.57,12.622,32.57,12.622s3.104-3.61,3.104-7.105
			c0-10.52-0.373-38.901-0.373-38.901c-9.49-10.087-5.856-26.511-1.677-30.954c7.311-7.771,12.006-12.711,14.715-15.546
			c1.138-1.191,3.157-0.569,3.413,1.06C257.987,9.837,261.134,21.334,271.661,32.512L271.661,32.512z M188.199,200.642
			c0.59,0,56.688,0,59.217,0c22.01,0,17.634-14.522,13.681-21.844c-8.087-15.016-23.258-33.245-23.258-33.245
			S194.846,196.402,188.199,200.642z"/>
		<path style="fill:#E2001A;" d="M70.284,265.081h-8.278c-1.806,0-2.69,2.201-1.38,3.445c4.472,4.245,10.71,12.647,10.71,26.488
			c0,5.691,0,64.182,0,68.889c0,44.833,36.798,86.283,81.515,86.283c7.518,0,48.092,0,53.092,0c22.425,0,50.21-0.051,68.328-18.876
			c13.941-14.484,17.869-28.934,17.869-52.017c0-5.653,0-19.413,0-22.551c0-19.49-42.113-45.718-42.113-45.718v46.185
			c0,0,10.225,6.332,14.366,9.61c19.396,15.389,3.153,45.839-14.836,45.839c-3.593,0-77.018,0.022-82.018,0.155
			c-30.199,0.751-71.023-26.316-71.023-71.832c0-6.127,0-33.467,0-37.434c0-25.868-6.891-35.075-9.501-37.634
			c-0.553-0.542-1.3-0.833-2.074-0.833H70.284V265.081z"/>
		<path style="fill:#E2001A;" d="M166.441,348.713c0,5.34-14.961,18.449-19.527,22.459c-0.57,0.501-1.452,0.229-1.669-0.497
			c-1.825-6.107-6.949-13.216-19.871-26.192c-0.4-0.402-0.406-1.057-0.005-1.458l20.035-20.01c0.401-0.401,1.056-0.395,1.459,0.004
			C160.745,336.79,166.441,339.888,166.441,348.713L166.441,348.713z"/>
		<path style="fill:#E2001A;" d="M188.147,512c10.234,0,18.533-8.106,18.533-18.103s-8.299-18.108-18.533-18.108
			c-10.234,0-18.533,8.111-18.533,18.108S177.913,512,188.147,512L188.147,512z"/>
	</g>
	<path style="fill:#C7232C;" d="M429.806,212.84c-17.17,0.139-34.03,23.421-36.377,26.402c-2.563-7.266-5.995-17.612-5.995-17.612
		s-26.829,21.828-7.965,53.344c8.296,16.812,27.988,18.307,38.494,8.254c5.238-5.006,17.865-17.984,21.625-21.762
		C456.705,244.266,458.477,212.605,429.806,212.84z M412.338,261.07c-11.348-7.194-18.909-21.828-18.909-21.828
		c5.315-5.653,23.224-2.83,32.995,4.551S431.341,273.118,412.338,261.07z"/>
</g>
<g>
</g>
<g>
</g>
<g>
</g>
<g>
</g>
<g>
</g>
<g>
</g>
<g>
</g>
<g>
</g>
<g>
</g>
<g>
</g>
<g>
</g>
<g>
</g>
<g>
</g>
<g>
</g>
<g>
</g>
</svg>
