<?xml version="1.0" encoding="iso-8859-1"?>
<!-- Generator: Adobe Illustrator 19.0.0, SVG Export Plug-In . SVG Version: 6.00 Build 0)  -->
<svg version="1.1" id="Capa_1" xmlns="http://www.w3.org/2000/svg" xmlns:xlink="http://www.w3.org/1999/xlink" x="0px" y="0px"
	 viewBox="0 0 512 512" style="enable-background:new 0 0 512 512;" xml:space="preserve">
<path style="fill:#E82934;" d="M510.011,286.944c0.107-0.217,0.175-0.446,0.203-0.687C511.383,276.331,512,266.241,512,256
	c0-5.851-0.199-11.655-0.586-17.406c-0.148-2.204-3.166-2.692-3.977-0.637c-13.992,35.487-38.267,73.445-68.264,91.9
	c34.812-29.557,59.232-83.407,66.075-131.85c0.037-0.263,0.025-0.53-0.036-0.788c-4.32-18.395-10.632-36.017-18.686-52.642
	c-0.959-1.98-3.926-1.302-3.925,0.898c0.002,5.252-0.204,10.547-0.628,15.875c-4.321,54.268-30.233,113.557-68.512,145.93
	c35.919-35.243,58.101-96.428,57.806-150.719c-0.093-16.59-2.282-32.676-6.307-48.015c-0.131-0.501-0.354-0.974-0.656-1.395
	C417.864,42.277,341.87,0,256,0C170.133,0,94.139,42.277,47.698,107.149c-0.302,0.421-0.524,0.895-0.656,1.396
	c-4.022,15.34-6.213,31.425-6.304,48.015c-0.295,54.291,21.887,115.477,57.806,150.719c-38.279-32.373-64.194-91.662-68.515-145.93
	c-0.424-5.329-0.629-10.623-0.627-15.876c0.001-2.2-2.966-2.878-3.925-0.898c-8.053,16.624-14.365,34.248-18.687,52.64
	c-0.061,0.258-0.073,0.526-0.036,0.788c6.845,48.446,31.263,102.295,66.077,131.853c-29.997-18.455-54.274-56.412-68.267-91.901
	c-0.81-2.055-3.828-1.567-3.977,0.637c-0.387,5.753-0.586,11.558-0.586,17.409c0,10.241,0.617,20.331,1.788,30.257
	c0.028,0.24,0.096,0.47,0.203,0.686c12.4,25.037,29.97,58.657,51.188,75.881c-14.347-7.923-27.523-19.495-39.34-37.013
	c-1.325-1.964-4.365-0.547-3.705,1.728C41.089,434.112,139.447,512,256,512c115.927,0,213.857-77.052,245.363-182.744
	c0.677-2.271-2.374-3.691-3.708-1.731c-10.7,15.723-25.171,27.753-38.835,35.299C480.042,345.601,497.612,311.981,510.011,286.944z
	 M90.066,191.631c0-91.244,73.644-165.291,164.738-165.934c91.565-0.647,167.137,74.372,167.135,165.94
	c-0.001,34.939-10.808,67.347-29.248,94.084l-0.29-0.1c-97.737,125.176-248.423-22.365-36.922-143.746
	c1.393-0.799,1.95-2.522,1.284-3.983c-6.491-14.248-19.173-47.461-50.303-47.461c-21.687,0-43.919,15.203-43.919,15.203
	l-106.634,19.724c-2.395,0.443-2.184,3.94,0.247,4.092l102.55,6.413c14.919,1.149,22.954,8.033,22.954,20.083
	c0,12.05-19.511,25.82-32.707,36.15c-11.676,9.137-79.472,66.331-70.72,146.147c1.141,10.401,3.564,21.186,7.603,32.304
	c-8.443-7.506-27.965-21.016-33.864-47.894c-0.296-1.35-1.014-2.564-2.076-3.449C113.338,288.765,90.066,242.918,90.066,191.631z"/>
<g>
	<path style="fill:#C7232C;" d="M497.677,327.493c1.328-1.953,4.37-0.522,3.696,1.741C469.869,434.941,371.935,511.996,256,511.996
		c-2.334,0-4.657-0.031-6.971-0.093c96.516-7.25,178.13-67.869,215.431-152.426C476.385,351.915,488.437,341.08,497.677,327.493z"/>
	<path style="fill:#C7232C;" d="M511.995,256c0,10.244-0.615,20.336-1.785,30.257c-0.028,0.24-0.096,0.47-0.203,0.686
		c-11.026,22.265-26.138,51.317-44.276,69.59c9.924-23.256,16.492-48.269,19.136-74.447c9.096-14.067,16.729-29.306,22.567-44.113
		c0.812-2.059,3.832-1.576,3.98,0.632C511.799,244.353,511.995,250.153,511.995,256z"/>
	<path style="fill:#C7232C;" d="M486.055,263.818c0.083-2.592,0.124-5.205,0.124-7.818c0-22.678-2.943-44.664-8.468-65.607
		c2.065-9.718,3.501-19.456,4.265-29.039c0.425-5.327,0.631-10.621,0.627-15.874c-0.002-2.2,2.966-2.878,3.925-0.899
		c8.054,16.622,14.367,34.243,18.685,52.639c0.061,0.258,0.073,0.525,0.036,0.787C502.188,219.741,495.57,242.58,486.055,263.818z"
		/>
	<path style="fill:#C7232C;" d="M471.266,156.561c0.021,4.027-0.083,8.096-0.31,12.186C437.362,75.804,351.628,7.822,249.072,0.097
		c2.303-0.062,4.616-0.093,6.929-0.093c85.866,0,161.863,42.27,208.304,107.145c0.301,0.421,0.524,0.894,0.655,1.395
		C468.984,123.88,471.174,139.97,471.266,156.561z"/>
</g>
<g>
</g>
<g>
</g>
<g>
</g>
<g>
</g>
<g>
</g>
<g>
</g>
<g>
</g>
<g>
</g>
<g>
</g>
<g>
</g>
<g>
</g>
<g>
</g>
<g>
</g>
<g>
</g>
<g>
</g>
</svg>
