<?xml version="1.0" encoding="iso-8859-1"?>
<!-- Generator: Adobe Illustrator 19.0.0, SVG Export Plug-In . SVG Version: 6.00 Build 0)  -->
<svg version="1.1" id="Capa_1" xmlns="http://www.w3.org/2000/svg" xmlns:xlink="http://www.w3.org/1999/xlink" x="0px" y="0px"
	 viewBox="0 0 512 512" style="enable-background:new 0 0 512 512;" xml:space="preserve">
<g>
	<g>
		<path style="fill:#F8B31F;" d="M502.129,362.221c2.261,2.902-0.188,7.06-3.826,6.512c-6.393-0.962-15.09-1.826-24.298-1.435
			c-13.774,0.579-28.686,3.972-38.763,14.048l-66.688,104.722C359.28,500.888,340.742,512,322.203,512H65.522
			c-3.22,0-5.161-3.567-3.411-6.27l84.816-131.078c5.556-11.102,5.556-25.932-3.708-35.205L19.026,217.142
			c-9.264-9.274-12.982-24.093-7.405-35.205l16.07-33.75c1.202-2.525,4.537-3.109,6.525-1.143l162.748,160.895
			c9.264,11.132,11.123,25.952,3.698,37.064l-87.024,135.51h204.867c11.123,0,20.377-5.556,25.933-14.84l61.172-95.449
			c5.536-7.415,14.821-14.83,22.236-18.527l12.432-8.547c3.288-2.26,1.688-7.411-2.302-7.411h-23.995
			c-9.284,0-16.68,5.546-20.377,11.102l-57.474,92.656c-7.415,11.132-18.538,18.537-31.51,18.537h-76.251
			c-1.589,0-2.563-1.741-1.731-3.095l85.489-139.18c12.972-20.386,9.254-48.176-9.284-66.703L123.065,69.291
			c-9.274-9.253-11.123-22.234-7.415-35.205l14.577-28.217l1.551-3.464c1.163-2.598,4.569-3.225,6.581-1.213l212.673,212.649
			c22.256,22.245,25.954,55.601,9.284,81.533l-78.123,129.933c-0.814,1.354,0.161,3.078,1.741,3.078h18.847
			c3.697,0,7.395-1.859,9.254-5.546l59.313-96.373c7.415-11.112,20.397-18.527,35.218-18.527h51.284
			c1.253,0,2.435,0.578,3.205,1.566L502.129,362.221z"/>
		<path style="fill:#F8B31F;" d="M80.42,72.47l190.908,189.007c16.677,16.685,20.376,42.62,7.419,61.164l-82.215,133.335
			c-0.74,1.2-2.049,1.931-3.459,1.931h-29.316c-1.59,0-2.564-1.744-1.729-3.098l66.667-108.087
			c9.279-14.824,7.419-37.056-5.559-50.032L69.302,144.745c-7.414-9.278-11.129-24.102-5.57-35.213L80.42,72.47L80.42,72.47z"/>
	</g>
	<g>
		<path style="fill:#D1851C;" d="M498.303,368.733c-6.393-0.962-15.09-1.826-24.298-1.435c0,0-19.107-33.925-35.208-59.36h19.052
			c1.253,0,2.435,0.578,3.205,1.566l41.075,52.716C504.39,365.123,501.941,369.28,498.303,368.733z"/>
		<path style="fill:#D1851C;" d="M178.936,325.966c7.692,7.139,14.521,16.538,17.135,26.192l4.595-7.155
			c7.419-11.115,5.559-25.935-3.699-37.066L34.216,147.043c-1.989-1.966-5.323-1.382-6.525,1.143l-9.149,19.216L178.936,325.966z"/>
		<path style="fill:#D1851C;" d="M333.005,231.873c16.97,16.959,27.567,44.805,24.259,68.575l3.051-5.074
			c16.676-25.935,12.977-59.289-9.279-81.53L138.363,1.191c-2.013-2.012-5.417-1.386-6.581,1.211l-1.553,3.465l-7.921,15.328
			L333.005,231.873z"/>
		<path style="fill:#D1851C;" d="M271.327,261.477L84.58,76.589c-2.014-1.994-5.4-1.365-6.564,1.219l-8.771,19.479l184.051,182.219
			c15.566,13.096,23.023,30.759,23.257,46.691l2.192-3.556C291.704,304.096,288.005,278.161,271.327,261.477z"/>
	</g>
</g>
<g>
</g>
<g>
</g>
<g>
</g>
<g>
</g>
<g>
</g>
<g>
</g>
<g>
</g>
<g>
</g>
<g>
</g>
<g>
</g>
<g>
</g>
<g>
</g>
<g>
</g>
<g>
</g>
<g>
</g>
</svg>
