<?xml version="1.0" encoding="iso-8859-1"?>
<!-- Generator: Adobe Illustrator 19.0.0, SVG Export Plug-In . SVG Version: 6.00 Build 0)  -->
<svg version="1.1" id="Capa_1" xmlns="http://www.w3.org/2000/svg" xmlns:xlink="http://www.w3.org/1999/xlink" x="0px" y="0px"
	 viewBox="0 0 512 512" style="enable-background:new 0 0 512 512;" xml:space="preserve">
<path style="fill:#E82934;" d="M282.834,0h225.023c2.521,0,4.458,2.222,4.1,4.705l-72.543,503.759
	c-0.292,2.029-2.04,3.536-4.1,3.536H4.147c-2.952,0-4.956-2.983-3.828-5.696L279.007,2.545C279.648,1.005,281.158,0,282.834,0z"/>
<path style="fill:#C7232C;" d="M507.857,0H481.33c2.521,0,4.458,2.222,4.1,4.705l-72.543,503.759
	c-0.292,2.029-2.04,3.536-4.101,3.536h26.527c2.061,0,3.808-1.507,4.101-3.536L511.957,4.705C512.315,2.222,510.378,0,507.857,0z"/>
<path style="fill:#FFFFFF;" d="M438.767,221.612v69.595c0,2.209-1.791,4-4,4h-79.294c-2.209,0-4,1.791-4,4V378.5
	c0,2.209-1.791,4-4,4h-69.595c-2.209,0-4-1.791-4-4v-79.294c0-2.209-1.791-4-4-4h-79.294c-2.209,0-4-1.791-4-4v-69.595
	c0-2.209,1.791-4,4-4h79.294c2.209,0,4-1.791,4-4v-79.294c0-2.209,1.791-4,4-4h69.595c2.209,0,4,1.791,4,4v79.294
	c0,2.209,1.791,4,4,4h79.294C436.976,217.612,438.767,219.403,438.767,221.612z"/>
<g>
</g>
<g>
</g>
<g>
</g>
<g>
</g>
<g>
</g>
<g>
</g>
<g>
</g>
<g>
</g>
<g>
</g>
<g>
</g>
<g>
</g>
<g>
</g>
<g>
</g>
<g>
</g>
<g>
</g>
</svg>
