<?xml version="1.0" encoding="iso-8859-1"?>
<!-- Generator: Adobe Illustrator 19.0.0, SVG Export Plug-In . SVG Version: 6.00 Build 0)  -->
<svg version="1.1" id="Capa_1" xmlns="http://www.w3.org/2000/svg" xmlns:xlink="http://www.w3.org/1999/xlink" x="0px" y="0px"
	 viewBox="0 0 512 512" style="enable-background:new 0 0 512 512;" xml:space="preserve">
<path style="fill:#E82934;" d="M512,255.994C512,397.38,397.38,512,255.994,512c-103.139,0-192.031-60.996-232.573-148.886
	c-2.249-4.863-4.345-9.809-6.276-14.837C6.064,319.651,0,288.529,0,255.994C0,163.841,48.679,83.075,121.733,37.987
	c1.566-0.966,3.144-1.92,4.734-2.85C164.465,12.8,208.74,0,255.994,0C397.38,0,512,114.609,512,255.994z"/>
<path style="fill:#FFFFFF;" d="M411.628,278.756L23.421,363.114c-2.249-4.863-4.345-9.809-6.276-14.837
	c62.868-11.94,119.978-39.376,144.2-110.134c25.034-73.184,9.338-152.678-39.612-200.156c1.566-0.966,3.144-1.92,4.734-2.85
	c95.062,28.72,170.152,99.289,170.152,155.987c-0.427,32.181-15.058,55.446-34.776,74.121c-2.697,2.554-0.869,7.093,2.845,7.093
	h146.94C416.079,272.338,417.127,277.59,411.628,278.756z"/>
<path style="fill:#C7232C;" d="M255.994,0c-4.323,0-8.62,0.11-12.89,0.321c135.408,6.702,243.141,118.602,243.141,255.673
	c0,137.043-107.688,248.937-243.057,255.682c4.243,0.209,8.511,0.324,12.806,0.324C397.38,512,512,397.38,512,255.994
	C512,114.609,397.38,0,255.994,0z"/>
<g>
</g>
<g>
</g>
<g>
</g>
<g>
</g>
<g>
</g>
<g>
</g>
<g>
</g>
<g>
</g>
<g>
</g>
<g>
</g>
<g>
</g>
<g>
</g>
<g>
</g>
<g>
</g>
<g>
</g>
</svg>
