<?xml version="1.0" encoding="UTF-8" standalone="no"?>
<!DOCTYPE svg PUBLIC "-//W3C//DTD SVG 1.1//EN" "http://www.w3.org/Graphics/SVG/1.1/DTD/svg11.dtd">
<svg version="1.1" xmlns="http://www.w3.org/2000/svg" xmlns:xlink="http://www.w3.org/1999/xlink" preserveAspectRatio="xMidYMid meet" viewBox="-1 -1.0000000000000284 44 44" width="40" height="40"><defs><path d="M26.44 24.68C28.66 22.06 30 18.69 30 15C30 6.73 23.27 0 15 0C6.73 0 0 6.73 0 15C0 23.27 6.73 30 15 30C18.69 30 22.06 28.66 24.68 26.44C26.03 27.8 36.88 38.64 38.23 40C38.23 40 40 38.23 40 38.23C37.29 35.52 27.8 26.03 26.44 24.68ZM2.5 15C2.5 8.11 8.11 2.5 15 2.5C21.89 2.5 27.5 8.11 27.5 15C27.5 21.89 21.89 27.5 15 27.5C8.11 27.5 2.5 21.89 2.5 15Z" id="c1sP2fKRH4"></path></defs><g><g><use xlink:href="#c1sP2fKRH4" opacity="1" fill="#e8e8e8" fill-opacity="1"></use><g><use xlink:href="#c1sP2fKRH4" opacity="1" fill-opacity="0" stroke="#000000" stroke-width="0" stroke-opacity="0"></use></g></g></g></svg>